REM DIRINDEX 1\2,1\3,1\4,1\5,1\6
REM DIRNAME folder01,folder02,folder03,folder04,folder05,folder06
TITLE ""
FILE "Disc1Track70.mp3" MP3
  TRACK 01 AUDIO
    TITLE "3:cjc030_01822"
    INDEX 01 00:00:00
  TRACK 02 AUDIO
    TITLE "0:"
    INDEX 01 00:00:66
  TRACK 03 AUDIO
    TITLE "4:cjc030_01823"
    INDEX 01 00:01:01
  TRACK 04 AUDIO
    TITLE "0:"
    INDEX 01 00:03:35
  TRACK 05 AUDIO
    TITLE "5:cjc030_01824"
    INDEX 01 00:03:45
  TRACK 06 AUDIO
    TITLE "0:"
    INDEX 01 00:04:44
  TRACK 07 AUDIO
    TITLE "6:cjc030_01825"
    INDEX 01 00:04:54
  TRACK 08 AUDIO
    TITLE "0:"
    INDEX 01 00:07:23
  TRACK 09 AUDIO
    TITLE "3:cjc030_01826"
    INDEX 01 00:07:70
  TRACK 10 AUDIO
    TITLE "0:"
    INDEX 01 00:08:72
  TRACK 11 AUDIO
    TITLE "4:cjc030_01827"
    INDEX 01 00:09:04
  TRACK 12 AUDIO
    TITLE "0:"
    INDEX 01 00:10:65
  TRACK 13 AUDIO
    TITLE "5:cjc030_01828"
    INDEX 01 00:10:74
  TRACK 14 AUDIO
    TITLE "0:"
    INDEX 01 00:11:72
  TRACK 15 AUDIO
    TITLE "3:cjc030_01829"
    INDEX 01 00:12:48
  TRACK 16 AUDIO
    TITLE "0:"
    INDEX 01 00:13:69
  TRACK 17 AUDIO
    TITLE "4:cjc030_01830"
    INDEX 01 00:14:02
  TRACK 18 AUDIO
    TITLE "0:"
    INDEX 01 00:15:23
  TRACK 19 AUDIO
    TITLE "5:cjc030_01831"
    INDEX 01 00:15:32
  TRACK 20 AUDIO
    TITLE "0:"
    INDEX 01 00:16:53
  TRACK 21 AUDIO
    TITLE "3:cjc030_01832"
    INDEX 01 00:17:25
  TRACK 22 AUDIO
    TITLE "0:"
    INDEX 01 00:18:17
  TRACK 23 AUDIO
    TITLE "4:cjc030_01833"
    INDEX 01 00:18:23
  TRACK 24 AUDIO
    TITLE "0:"
    INDEX 01 00:19:13
  TRACK 25 AUDIO
    TITLE "5:cjc030_01834"
    INDEX 01 00:19:22
  TRACK 26 AUDIO
    TITLE "0:"
    INDEX 01 00:20:14
  TRACK 27 AUDIO
    TITLE "3:cjc030_01835"
    INDEX 01 00:20:69
  TRACK 28 AUDIO
    TITLE "0:"
    INDEX 01 00:21:62
  TRACK 29 AUDIO
    TITLE "4:cjc030_01836"
    INDEX 01 00:21:72
  TRACK 30 AUDIO
    TITLE "0:"
    INDEX 01 00:24:37
  TRACK 31 AUDIO
    TITLE "5:cjc030_01837"
    INDEX 01 00:24:45
  TRACK 32 AUDIO
    TITLE "0:"
    INDEX 01 00:25:37
  TRACK 33 AUDIO
    TITLE "6:cjc030_01838"
    INDEX 01 00:25:50
  TRACK 34 AUDIO
    TITLE "0:"
    INDEX 01 00:29:72
  TRACK 35 AUDIO
    TITLE "3:cjc030_01839"
    INDEX 01 00:30:48
  TRACK 36 AUDIO
    TITLE "0:"
    INDEX 01 00:31:59
  TRACK 37 AUDIO
    TITLE "4:cjc030_01840"
    INDEX 01 00:31:65
  TRACK 38 AUDIO
    TITLE "0:"
    INDEX 01 00:34:34
  TRACK 39 AUDIO
    TITLE "5:cjc030_01841"
    INDEX 01 00:34:36
  TRACK 40 AUDIO
    TITLE "0:"
    INDEX 01 00:35:49
  TRACK 41 AUDIO
    TITLE "6:cjc030_01842"
    INDEX 01 00:35:63
  TRACK 42 AUDIO
    TITLE "0:"
    INDEX 01 00:40:13
  TRACK 43 AUDIO
    TITLE "3:cjc030_01843"
    INDEX 01 00:40:62
  TRACK 44 AUDIO
    TITLE "0:"
    INDEX 01 00:41:67
  TRACK 45 AUDIO
    TITLE "4:cjc030_01844"
    INDEX 01 00:42:00
  TRACK 46 AUDIO
    TITLE "0:"
    INDEX 01 00:42:74
  TRACK 47 AUDIO
    TITLE "5:cjc030_01845"
    INDEX 01 00:43:07
  TRACK 48 AUDIO
    TITLE "0:"
    INDEX 01 00:44:16
  TRACK 49 AUDIO
    TITLE "6:cjc030_01846"
    INDEX 01 00:44:26
  TRACK 50 AUDIO
    TITLE "0:"
    INDEX 01 00:49:02
  TRACK 51 AUDIO
    TITLE "3:cjc030_01847"
    INDEX 01 00:49:49
  TRACK 52 AUDIO
    TITLE "0:"
    INDEX 01 00:50:50
  TRACK 53 AUDIO
    TITLE "4:cjc030_01848"
    INDEX 01 00:50:60
  TRACK 54 AUDIO
    TITLE "0:"
    INDEX 01 00:53:11
  TRACK 55 AUDIO
    TITLE "5:cjc030_01849"
    INDEX 01 00:53:21
  TRACK 56 AUDIO
    TITLE "0:"
    INDEX 01 00:54:21
  TRACK 57 AUDIO
    TITLE "6:cjc030_01850"
    INDEX 01 00:54:34
  TRACK 58 AUDIO
    TITLE "0:"
    INDEX 01 00:56:24
  TRACK 59 AUDIO
    TITLE "3:cjc030_01851"
    INDEX 01 00:56:71
  TRACK 60 AUDIO
    TITLE "0:"
    INDEX 01 00:58:03
  TRACK 61 AUDIO
    TITLE "4:cjc030_01852"
    INDEX 01 00:58:09
  TRACK 62 AUDIO
    TITLE "0:"
    INDEX 01 01:00:25
  TRACK 63 AUDIO
    TITLE "5:cjc030_01853"
    INDEX 01 01:00:33
  TRACK 64 AUDIO
    TITLE "0:"
    INDEX 01 01:01:40
  TRACK 65 AUDIO
    TITLE "3:cjc030_01854"
    INDEX 01 01:02:18
  TRACK 66 AUDIO
    TITLE "0:"
    INDEX 01 01:03:37
  TRACK 67 AUDIO
    TITLE "4:cjc030_01855"
    INDEX 01 01:03:47
  TRACK 68 AUDIO
    TITLE "0:"
    INDEX 01 01:04:41
  TRACK 69 AUDIO
    TITLE "5:cjc030_01856"
    INDEX 01 01:04:48
  TRACK 70 AUDIO
    TITLE "0:"
    INDEX 01 01:05:69
  TRACK 71 AUDIO
    TITLE "6:cjc030_01857"
    INDEX 01 01:06:04
  TRACK 72 AUDIO
    TITLE "0:"
    INDEX 01 01:08:54
  TRACK 73 AUDIO
    TITLE "3:cjc030_01858"
    INDEX 01 01:09:28
  TRACK 74 AUDIO
    TITLE "0:"
    INDEX 01 01:10:26
  TRACK 75 AUDIO
    TITLE "4:cjc030_01859"
    INDEX 01 01:10:37
  TRACK 76 AUDIO
    TITLE "0:"
    INDEX 01 01:11:29
  TRACK 77 AUDIO
    TITLE "5:cjc030_01860"
    INDEX 01 01:11:35
  TRACK 78 AUDIO
    TITLE "0:"
    INDEX 01 01:12:40
  TRACK 79 AUDIO
    TITLE "6:cjc030_01861"
    INDEX 01 01:12:50
  TRACK 80 AUDIO
    TITLE "0:"
    INDEX 01 01:16:28
